<svg xmlns="http://www.w3.org/2000/svg" width="48" height="48"><path fill="#CFD8DC" d="M17 24 7 17.467s1-1.865 1-3.732S7 10 7 10l10 6.533zm0 16L7 32.533s1-.934 1-2.8S7 26 7 26l10 6.533zm0-8L7 24.533s1-.934 1-2.8S7 18 7 18l10 6.533z"/><path fill="#3F51B5" d="M17.624 34a1 1 0 0 1-.624-.219l-10.625-8a1 1 0 0 1 1.249-1.562l10.625 8A1 1 0 0 1 17.624 34"/><path fill="#3F51B5" d="M42 25H16s1 1.742 1 4.246S16 33 16 33h26s1-1 1-4-1-4-1-4"/><path fill="#9C27B0" d="M17.624 26a1 1 0 0 1-.624-.219l-10.625-8a1 1 0 0 1 1.249-1.562l10.625 8A1 1 0 0 1 17.624 26"/><path fill="#9C27B0" d="M42 17H16s1 1.742 1 4.246S16 25 16 25h26s1-1 1-4-1-4-1-4"/><path fill="#8BC34A" d="M18.609 41a.98.98 0 0 0-.36-.781l-10.625-8a1 1 0 0 0-1.249 1.562L15.962 41z"/><path fill="#8BC34A" d="M42 33H16s1 1.742 1 4.246S16 41 16 41h26s1-1 1-4-1-4-1-4"/><path fill="#689F38" d="M42 33H16s.441.756.733 2h26.035c-.295-1.441-.768-2-.768-2"/><path fill="#303F9F" d="M42 25H16s.441.756.733 2h26.035c-.295-1.441-.768-2-.768-2"/><path fill="#FDD835" d="M21.034 32c.11-.45.299-1.379.299-2.5s-.189-2.05-.299-2.5H19c.003.009.333 1.267.333 2.5S19.002 31.993 19 32zm0-8c.11-.45.299-1.379.299-2.5s-.189-2.05-.299-2.5H19c.003.009.333 1.267.333 2.5S19.002 23.993 19 24zm0 16c.11-.45.299-1.379.299-2.5s-.189-2.05-.299-2.5H19c.003.009.333 1.267.333 2.5S19.002 39.993 19 40z"/><path fill="#7B1FA2" d="M42.768 19c-.295-1.441-.768-2-.768-2L30.844 8.591S30.063 8 29 8H7l.018.018a.98.98 0 0 0-.827.394 1 1 0 0 0 .22 1.396l9.737 7.47c.161.325.418.92.607 1.722z"/><path fill="#AF7000" d="M32 16 21 8h-5l11 8c1.75 1.25 2 1.625 2 3v19s0 3-2 3h5c2 0 2-3 2-3V19c0-2-1.562-2.562-2-3"/><path fill="#FFC107" d="M34 27v4h-5v-4zm.25-1h-5.5a.75.75 0 0 0-.75.75v4.5c0 .414.336.75.75.75h5.5a.75.75 0 0 0 .75-.75v-4.5a.75.75 0 0 0-.75-.75"/><path fill="#5B3B07" d="M31.5 28.5a.5.5 0 1 0 0 1 .5.5 0 1 0 0-1"/><path fill="#FFEB3B" d="M31.5 29a.5.5 0 0 1-.5-.5v-3a.5.5 0 0 1 1 0v3a.5.5 0 0 1-.5.5"/></svg>